<?xml version="1.0" ?><svg viewBox="0 0 64 64" xmlns="http://www.w3.org/2000/svg"><g data-name="11-Snowman" id="_11-Snowman"><path d="M27,35.56V48H17c0-6.33,2.45-13.48,2.92-14.79A24.24,24.24,0,0,0,27,35.56Z" style="fill:#bf1b2e"/><path d="M27,35.56a24.24,24.24,0,0,1-7.08-2.35c-.37-.19-.7-.38-1-.57A10.257,10.257,0,0,1,18,32s.93-2.8,6.41-5.7A10.985,10.985,0,0,0,32,29a10.985,10.985,0,0,0,7.59-2.7C45.07,29.2,46,32,46,32a10.257,10.257,0,0,1-.92.64A25.456,25.456,0,0,1,32,36,27.773,27.773,0,0,1,27,35.56Z" style="fill:#d61f34"/><path d="M32,9c-6.46,0-10.23,1.93-11.92,3.12L20,12s2.5-7,6.5-9a17.274,17.274,0,0,1,7-2h3s2.98,0,9.92,4.94a4,4,0,0,0,.04,6.15l-2.35.16C42.53,11.09,38.72,9,32,9Z" style="fill:#d61f34"/><path d="M49,5a3.994,3.994,0,1,1-2.58.94A4,4,0,0,1,49,5Z" style="fill:#30912c"/><path d="M20.95,17A1.827,1.827,0,0,1,19,15.32V13.65a1.512,1.512,0,0,1,.6-1.18c.14-.11.3-.23.48-.35C21.77,10.93,25.54,9,32,9c6.72,0,10.53,2.09,12.11,3.25.11.08.2.15.29.22a1.512,1.512,0,0,1,.6,1.18v1.67A1.827,1.827,0,0,1,43.05,17a.277.277,0,0,1-.09-.01,2.038,2.038,0,0,1-1.25-.46c-1.1-.88-4.07-2.73-9.71-2.73s-8.61,1.85-9.71,2.73a2.038,2.038,0,0,1-1.25.46A.277.277,0,0,1,20.95,17Z" style="fill:#30912c"/><path d="M41.71,16.53a2.038,2.038,0,0,0,1.25.46V17c.02.33.04.66.04,1a10.989,10.989,0,0,1-3.41,8.3A10.985,10.985,0,0,1,32,29a10.985,10.985,0,0,1-7.59-2.7A10.989,10.989,0,0,1,21,18c0-.34.02-.67.04-1v-.01a2.038,2.038,0,0,0,1.25-.46c1.1-.88,4.07-2.73,9.71-2.73S40.61,15.65,41.71,16.53Z" style="fill:#fafafa"/><path d="M19.92,33.21C19.45,34.52,17,41.67,17,48H27V35.56A27.773,27.773,0,0,0,32,36a25.456,25.456,0,0,0,13.08-3.36,15.352,15.352,0,0,1,2.32,3.25A21.715,21.715,0,0,1,50,46c0,9.94-8.06,17-18,17S14,55.94,14,46a21.715,21.715,0,0,1,2.6-10.11,15.352,15.352,0,0,1,2.32-3.25C19.22,32.83,19.55,33.02,19.92,33.21Z" style="fill:#fafafa"/><path d="M48.46,10.09a3.973,3.973,0,0,1-1.1-4.723,3.987,3.987,0,0,0-.9,6.723,3.993,3.993,0,0,0,6.181-1.449,3.973,3.973,0,0,1-4.181-.551Z" style="fill:#147e30"/><path d="M42.131,14.409A22.027,22.027,0,0,0,33,12a26.525,26.525,0,0,0-7.358,1.031,2.039,2.039,0,0,1-2.568-2.492A14.559,14.559,0,0,0,20.08,12.12c-.18.12-.34.24-.48.35a1.512,1.512,0,0,0-.6,1.18v1.67A1.827,1.827,0,0,0,20.95,17a.277.277,0,0,0,.09-.01,2.038,2.038,0,0,0,1.25-.46c1.1-.88,4.07-2.73,9.71-2.73s8.61,1.85,9.71,2.73a2.038,2.038,0,0,0,1.25.46.277.277,0,0,0,.09.01A1.827,1.827,0,0,0,45,15.32V13.65a1.4,1.4,0,0,0-.089-.463A2,2,0,0,1,42.131,14.409Z" style="fill:#147e30"/><path d="M46.42,5.94c-.5-.355-.97-.677-1.428-.983A4.971,4.971,0,0,0,43.5,6.875a1.962,1.962,0,0,1-2.536.985A31.236,31.236,0,0,0,33,6a27.405,27.405,0,0,0-10.3.705A26.932,26.932,0,0,0,20,12l.08.12C21.77,10.93,25.54,9,32,9c6.72,0,10.53,2.09,12.11,3.25l2.35-.16a4,4,0,0,1-.04-6.15Z" style="fill:#bf1b2e"/><path d="M35.392,2.119A1.951,1.951,0,0,0,34.04,3.33a.871.871,0,0,0,.079.711,1.5,1.5,0,0,0,.922.489l3.739.958a16.216,16.216,0,0,0,2.5.5.739.739,0,0,0,.537-.092.492.492,0,0,0,.147-.237,1.206,1.206,0,0,0-.471-1.266,11.531,11.531,0,0,0-2.1-1.388,16.509,16.509,0,0,0-2.023-.823A3.349,3.349,0,0,0,35.392,2.119Z" style="fill:#e93c51"/><path d="M42.96,17v-.01a2.038,2.038,0,0,1-1.25-.46c-1.1-.88-4.07-2.73-9.71-2.73a17.691,17.691,0,0,0-7.906,1.609,9.9,9.9,0,0,0-1.8,1.121,2.038,2.038,0,0,1-1.25.46V17c-.02.33-.04.66-.04,1s.021.663.045.99A10.751,10.751,0,0,0,24.41,26.3,10.985,10.985,0,0,0,32,29c.186,0,.362-.015.544-.022a8.545,8.545,0,0,1-8.076-7.96h0a4.683,4.683,0,0,1,3.9-4.934A22.165,22.165,0,0,1,32,15.8c5.64,0,8.61,1.85,9.71,2.73a2.044,2.044,0,0,0,1.245.46c.024-.327.045-.655.045-.99S42.98,17.33,42.96,17Z" style="fill:#d5dfe9"/><path d="M39.59,26.3A10.985,10.985,0,0,1,32,29a10.985,10.985,0,0,1-7.59-2.7c-.428.227-.819.452-1.194.676C18.8,29.62,18,32,18,32a10.257,10.257,0,0,0,.92.64c.3.19.63.38,1,.57a21.149,21.149,0,0,0,2.258,1.022,13.32,13.32,0,0,1,1.1-2.894,2.931,2.931,0,0,1,3.753-1.333A12.09,12.09,0,0,0,32,31a10.985,10.985,0,0,0,7.59-2.7,9.724,9.724,0,0,0,1.194-1.324C40.409,26.752,40.018,26.527,39.59,26.3Z" style="fill:#bf1b2e"/><path d="M24.193,38.212c1.028.256,2.07.467,2.807.607V35.56a24.24,24.24,0,0,1-7.08-2.35C19.45,34.52,17,41.67,17,48h3a65.635,65.635,0,0,1,.482-7.221A3,3,0,0,1,24.193,38.212Z" style="fill:#961624"/><path d="M20,53.363A3.007,3.007,0,0,1,22.98,50H26V48H17A45.722,45.722,0,0,1,19.1,35.745c.371-1.238.686-2.147.825-2.535-.37-.19-.7-.38-1-.57A14.366,14.366,0,0,0,17.5,34.431,16.562,16.562,0,0,0,16.6,35.89,21.715,21.715,0,0,0,14,46c0,8.829,6.364,15.373,14.751,16.728C22.124,61.545,20.385,56.721,20,53.363Z" style="fill:#d5dfe9"/><path d="M45.08,32.64A25.456,25.456,0,0,1,32,36a27.773,27.773,0,0,1-5-.44v3A27.773,27.773,0,0,0,32,39a25.456,25.456,0,0,0,13.08-3.36,18.4,18.4,0,0,0,1.425-1.209A14.366,14.366,0,0,0,45.08,32.64Z" style="fill:#d5dfe9"/><path d="M42.955,17c.03.329.045.663.045,1,0,6.075-4,11-11,11S21,24.075,21,18c0-.337.015-.671.045-1" style="fill:none;stroke:#000;stroke-linejoin:round;stroke-width:2px"/><path d="M49.542,50C47.7,57.782,40.547,63,32,63c-9.941,0-18-7.059-18-17,0-4.831,1.9-10.217,5-13.45" style="fill:none;stroke:#000;stroke-linejoin:round;stroke-width:2px"/><path d="M50,46a17.966,17.966,0,0,1-.111,2" style="fill:none;stroke:#000;stroke-linejoin:round;stroke-width:2px"/><path d="M45,32.55A20.1,20.1,0,0,1,49.9,44" style="fill:none;stroke:#000;stroke-linejoin:round;stroke-width:2px"/><path d="M39,26c6,3,7,6,7,6-1.977,1.547-7.064,4-14,4s-12.023-2.453-14-4c0,0,1-3,7-6" style="fill:none;stroke:#000;stroke-linejoin:round;stroke-width:2px"/><path d="M20,33s-3,8-3,15H27V38" style="fill:none;stroke:#000;stroke-linejoin:round;stroke-width:2px"/><polyline points="47 36 54 34 55 29" style="fill:none;stroke:#000;stroke-linejoin:round;stroke-width:2px"/><polyline points="58 37 54 34 59 32" style="fill:none;stroke:#000;stroke-linejoin:round;stroke-width:2px"/><polyline points="17 36 10 34 9 29" style="fill:none;stroke:#000;stroke-linejoin:round;stroke-width:2px"/><polyline points="6 37 10 34 5 32" style="fill:none;stroke:#000;stroke-linejoin:round;stroke-width:2px"/><circle cx="49" cy="9" r="4" style="fill:none;stroke:#000;stroke-linejoin:round;stroke-width:2px"/><path d="M28,9.269c-.713.1-1.379.225-2,.368" style="fill:none;stroke:#000;stroke-linejoin:round;stroke-width:2px"/><path d="M24,10.2a14.727,14.727,0,0,0-4.4,2.272,1.5,1.5,0,0,0-.6,1.18v1.67A1.829,1.829,0,0,0,20.949,17a2.138,2.138,0,0,0,1.345-.466c1.1-.887,4.063-2.734,9.706-2.734s8.607,1.847,9.706,2.734A2.138,2.138,0,0,0,43.051,17,1.829,1.829,0,0,0,45,15.321v-1.67a1.5,1.5,0,0,0-.6-1.18C43.016,11.384,39.168,9,32,9c-.7,0-1.364.023-2,.064" style="fill:none;stroke:#000;stroke-linejoin:round;stroke-width:2px"/><circle cx="49" cy="9" r="4" style="fill:none;stroke:#000;stroke-linejoin:round;stroke-width:2px"/><path d="M20,12s2.5-7,6.5-9a17.274,17.274,0,0,1,7-2h3s3,0,10,5" style="fill:none;stroke:#000;stroke-linejoin:round;stroke-width:2px"/><polyline points="32 20 29 23 33 23" style="fill:none;stroke:#000;stroke-linejoin:round;stroke-width:2px"/><line style="fill:none;stroke:#000;stroke-linejoin:round;stroke-width:2px" x1="37" x2="37" y1="18" y2="20"/><line style="fill:none;stroke:#000;stroke-linejoin:round;stroke-width:2px" x1="27" x2="27" y1="18" y2="20"/><line style="fill:none;stroke:#000;stroke-linejoin:round;stroke-width:2px" x1="11" x2="11" y1="4" y2="6"/><line style="fill:none;stroke:#000;stroke-linejoin:round;stroke-width:2px" x1="5" x2="5" y1="11" y2="13"/><line style="fill:none;stroke:#000;stroke-linejoin:round;stroke-width:2px" x1="12" x2="12" y1="16" y2="18"/><line style="fill:none;stroke:#000;stroke-linejoin:round;stroke-width:2px" x1="53" x2="53" y1="16" y2="18"/><line style="fill:none;stroke:#000;stroke-linejoin:round;stroke-width:2px" x1="60" x2="60" y1="23" y2="25"/><line style="fill:none;stroke:#000;stroke-linejoin:round;stroke-width:2px" x1="15" x2="15" y1="25" y2="27"/><line style="fill:none;stroke:#000;stroke-linejoin:round;stroke-width:2px" x1="49" x2="49" y1="25" y2="27"/><line style="fill:none;stroke:#000;stroke-linejoin:round;stroke-width:2px" x1="20" x2="20" y1="2" y2="4"/><line style="fill:none;stroke:#000;stroke-linejoin:round;stroke-width:2px" x1="62" x2="62" y1="1" y2="3"/><line style="fill:none;stroke:#000;stroke-linejoin:round;stroke-width:2px" x1="56" x2="56" y1="5" y2="7"/><line style="fill:none;stroke:#000;stroke-linejoin:round;stroke-width:2px" x1="63" x2="63" y1="12" y2="14"/><line style="fill:none;stroke:#000;stroke-linejoin:round;stroke-width:2px" x1="1" x2="1" y1="22" y2="24"/><line style="fill:none;stroke:#000;stroke-linejoin:round;stroke-width:2px" x1="3" x2="3" y1="1" y2="3"/></g></svg>